<svg id="visual" viewBox="0 0 900 600" width="900" height="600" xmlns="http://www.w3.org/2000/svg" xmlns:xlink="http://www.w3.org/1999/xlink" version="1.1">
  <rect x="0" y="0" width="900" height="600" fill="#001220"></rect>
  <path id="path1" d="M531 600L555.2 585.7C579.3 571.3 627.7 542.7 642.5 514.2C657.3 485.7 638.7 457.3 637 428.8C635.3 400.3 650.7 371.7 643.2 343C635.7 314.3 605.3 285.7 593.5 257C581.7 228.3 588.3 199.7 585.3 171.2C582.3 142.7 569.7 114.3 582 85.8C594.3 57.3 631.7 28.7 650.3 14.3L669 0L900 0L900 14.3C900 28.7 900 57.3 900 85.8C900 114.3 900 142.7 900 171.2C900 199.7 900 228.3 900 257C900 285.7 900 314.3 900 343C900 371.7 900 400.3 900 428.8C900 457.3 900 485.7 900 514.2C900 542.7 900 571.3 900 585.7L900 600Z" fill="#03352a"></path>
  <path id="path2" d="M714 600L707.2 585.7C700.3 571.3 686.7 542.7 678.5 514.2C670.3 485.7 667.7 457.3 658.7 428.8C649.7 400.3 634.3 371.7 631.8 343C629.3 314.3 639.7 285.7 654.5 257C669.3 228.3 688.7 199.7 685.3 171.2C682 142.7 656 114.3 658.2 85.8C660.3 57.3 690.7 28.7 705.8 14.3L721 0L900 0L900 14.3C900 28.7 900 57.3 900 85.8C900 114.3 900 142.7 900 171.2C900 199.7 900 228.3 900 257C900 285.7 900 314.3 900 343C900 371.7 900 400.3 900 428.8C900 457.3 900 485.7 900 514.2C900 542.7 900 571.3 900 585.7L900 600Z" fill="#024b3c"></path>
  <path id="path3" d="M762 600L760.7 585.7C759.3 571.3 756.7 542.7 740.3 514.2C724 485.7 694 457.3 692.5 428.8C691 400.3 718 371.7 718.8 343C719.7 314.3 694.3 285.7 684.7 257C675 228.3 681 199.7 687.7 171.2C694.3 142.7 701.7 114.3 709.8 85.8C718 57.3 727 28.7 731.5 14.3L736 0L900 0L900 14.3C900 28.7 900 57.3 900 85.8C900 114.3 900 142.7 900 171.2C900 199.7 900 228.3 900 257C900 285.7 900 314.3 900 343C900 371.7 900 400.3 900 428.8C900 457.3 900 485.7 900 514.2C900 542.7 900 571.3 900 585.7L900 600Z" fill="#01624e"></path>
  <path id="path4" d="M744 600L740.8 585.7C737.7 571.3 731.3 542.7 734.5 514.2C737.7 485.7 750.3 457.3 755.5 428.8C760.7 400.3 758.3 371.7 753.2 343C748 314.3 740 285.7 747.7 257C755.3 228.3 778.7 199.7 789.5 171.2C800.3 142.7 798.7 114.3 790.7 85.8C782.7 57.3 768.3 28.7 761.2 14.3L754 0L900 0L900 14.3C900 28.7 900 57.3 900 85.8C900 114.3 900 142.7 900 171.2C900 199.7 900 228.3 900 257C900 285.7 900 314.3 900 343C900 371.7 900 400.3 900 428.8C900 457.3 900 485.7 900 514.2C900 542.7 900 571.3 900 585.7L900 600Z" fill="#007b60"></path>
  <path id="path5" d="M808 600L809.2 585.7C810.3 571.3 812.7 542.7 816.5 514.2C820.3 485.7 825.7 457.3 825 428.8C824.3 400.3 817.7 371.7 813.5 343C809.3 314.3 807.7 285.7 814.8 257C822 228.3 838 199.7 840.2 171.2C842.3 142.7 830.7 114.3 825.2 85.8C819.7 57.3 820.3 28.7 820.7 14.3L821 0L900 0L900 14.3C900 28.7 900 57.3 900 85.8C900 114.3 900 142.7 900 171.2C900 199.7 900 228.3 900 257C900 285.7 900 314.3 900 343C900 371.7 900 400.3 900 428.8C900 457.3 900 485.7 900 514.2C900 542.7 900 571.3 900 585.7L900 600Z" fill="#009473"></path>
</svg>


