<svg id="visual" viewBox="0 0 900 600" width="900" height="600" xmlns="http://www.w3.org/2000/svg" xmlns:xlink="http://www.w3.org/1999/xlink" version="1.1"><rect x="0" y="0" width="900" height="600" fill="#002233"></rect><path d="M0 401L13.7 418.3C27.3 435.7 54.7 470.3 82 473.7C109.3 477 136.7 449 163.8 431.2C191 413.3 218 405.7 245.2 417C272.3 428.3 299.7 458.7 327 473.5C354.3 488.3 381.7 487.7 409 482.8C436.3 478 463.7 469 491 457.7C518.3 446.3 545.7 432.7 573 440C600.3 447.3 627.7 475.7 654.8 474.5C682 473.3 709 442.7 736.2 423.7C763.3 404.7 790.7 397.3 818 405.5C845.3 413.7 872.7 437.3 886.3 449.2L900 461L900 601L886.3 601C872.7 601 845.3 601 818 601C790.7 601 763.3 601 736.2 601C709 601 682 601 654.8 601C627.7 601 600.3 601 573 601C545.7 601 518.3 601 491 601C463.7 601 436.3 601 409 601C381.7 601 354.3 601 327 601C299.7 601 272.3 601 245.2 601C218 601 191 601 163.8 601C136.7 601 109.3 601 82 601C54.7 601 27.3 601 13.7 601L0 601Z" fill="#105949" stroke-linecap="round" stroke-linejoin="miter"></path></svg>